<svg width="150" height="38" viewBox="0 0 150 38" fill="none" xmlns="http://www.w3.org/2000/svg">
<path fill-rule="evenodd" clip-rule="evenodd" d="M3.34864 22.172C9.42675 19.8798 18.6593 13.4786 22.4549 0.0608844C22.0153 -0.0459858 11.0461 0.0203474 10.2841 0.0203474C8.40824 0.0203474 6.47013 0.012977 4.18763 1.50548C4.02276 1.61603 3.8579 1.72659 3.70402 1.84451C4.64926 1.93296 5.51023 2.10985 5.93156 2.40835C6.63866 2.90953 6.98671 3.35175 7.10395 3.86399C7.23585 4.4352 8.21772 4.25094 9.03473 4.48679C16.0654 6.52469 13.717 14.2415 13.292 13.029C12.3064 10.2246 8.26535 12.6052 7.06365 12.8853C4.59797 13.4602 1.3226 15.4207 0.0109912 15.9145L0 22.8021C1.51678 22.7985 1.89048 22.7211 3.34864 22.172ZM25.9501 0.0350882L24.1476 0.0277178C24.1732 10.3499 18.0695 27.884 4.75917 31.326C3.1911 31.7313 2.10664 31.7682 0.520248 31.8235C1.24933 33.795 2.67818 35.5602 4.46974 36.6621C6.92077 38.1694 9.42309 37.9077 11.7605 36.382C21.6819 29.3065 26.7964 18.3357 26.6975 6.24094C26.7342 5.4781 26.3531 0.727902 25.9501 0.0350882Z" fill="#014369"/>
<path fill-rule="evenodd" clip-rule="evenodd" d="M27.8589 0.057155C27.8992 0.344599 28.61 1.94765 28.7748 2.39356C30.7533 7.63757 31.3394 13.497 30.5444 18.9842C29.6102 25.4444 26.932 31.8455 21.125 37.9298C21.528 38.0477 26.8954 37.9814 27.7783 37.9814C29.8007 37.9814 32.1198 37.7897 34.4793 35.7703C36.7214 33.854 37.6887 31.1527 37.696 29.0816V15.675C37.6997 13.4233 37.6374 11.1827 37.696 8.94213C37.7839 5.44858 35.0801 1.57545 31.1929 0.418303C30.2477 0.134544 28.5697 -0.104993 27.8589 0.057155Z" fill="#EA560D"/>
<path fill-rule="evenodd" clip-rule="evenodd" d="M1.56055 6.75696C2.10278 6.04941 5.55766 4.26209 6.12188 5.75828C6.35636 6.38107 6.61282 6.3995 5.49538 7.00018C4.9788 7.27657 3.71848 8.29368 3.6855 7.28026C3.65253 6.18944 2.88315 6.56902 2.13941 6.56165C2.05515 6.56165 1.60451 6.70168 1.56055 6.75696Z" fill="#014369"/>
<path d="M45.3714 20.182C45.3714 20.392 45.4557 20.4989 45.6205 20.4989H51.9221C52.4864 20.4989 52.959 20.4326 53.3437 20.3036C53.7284 20.1746 54.0398 19.9645 54.2742 19.6734C54.5124 19.3823 54.6809 18.9917 54.7835 18.5089C54.8861 18.0225 54.9374 17.4255 54.9374 16.7105V14.0388C54.9374 13.3275 54.8861 12.7268 54.7835 12.2404C54.6809 11.754 54.5124 11.367 54.2742 11.0759C54.0361 10.7848 53.7284 10.5747 53.3437 10.4457C52.959 10.3167 52.4864 10.2504 51.9221 10.2504H45.6205C45.4557 10.2504 45.3714 10.3646 45.3714 10.5894V20.182ZM51.9991 6.87478C53.0359 6.87478 53.9262 7.00745 54.6699 7.27646C55.4137 7.5418 56.0218 7.95822 56.4945 8.51469C56.9671 9.07483 57.3188 9.78607 57.5423 10.6521C57.7658 11.5181 57.8793 12.5426 57.8793 13.7255V17.0275C57.8793 18.2104 57.7658 19.2349 57.5423 20.1009C57.3188 20.9669 56.9707 21.6782 56.4945 22.2383C56.0218 22.7984 55.4137 23.2112 54.6699 23.4765C53.9262 23.7419 53.0359 23.8782 51.9991 23.8782H43.0083C42.6236 23.8782 42.4331 23.635 42.4331 23.1485V7.60076C42.4331 7.11432 42.6236 6.87109 43.0083 6.87109H51.9991V6.87478Z" fill="#014369"/>
<path d="M62.7924 6.87476C63.0745 6.87476 63.2137 7.05164 63.2137 7.40911V23.3402C63.2137 23.6976 63.0745 23.8745 62.7924 23.8745H60.7187C60.4256 23.8745 60.2754 23.6976 60.2754 23.3402V7.40911C60.2754 7.05164 60.4219 6.87476 60.7187 6.87476H62.7924Z" fill="#014369"/>
<path fill-rule="evenodd" clip-rule="evenodd" d="M76.6635 6.87483C78.1363 6.87483 79.1914 7.29494 79.8326 8.13884C80.4737 8.97906 80.7925 10.2283 80.7925 11.8793V13.2649C80.7925 14.6579 80.569 15.7598 80.122 16.5669C79.6751 17.3776 78.9423 17.8935 77.9311 18.122L81.2175 23.2702C81.2798 23.3513 81.3017 23.4729 81.2761 23.635C81.2505 23.7972 81.1479 23.8783 80.9684 23.8783H78.4917C78.3268 23.8783 78.2096 23.8525 78.1473 23.8046C78.085 23.7566 78.0191 23.6756 77.9568 23.5613L74.9232 18.5089H68.7205V23.3402C68.7205 23.6977 68.5813 23.8746 68.2992 23.8746H66.2255C65.9324 23.8746 65.7822 23.6977 65.7822 23.3402V15.476L76.0773 15.5424C76.7294 15.5424 77.1911 15.3655 77.4585 15.008C77.726 14.6506 77.8615 14.1088 77.8615 13.3792V12.3584C77.8615 11.6287 77.726 11.087 77.4585 10.7295C77.1911 10.3721 76.7294 10.1952 76.0773 10.1952C72.6444 10.1952 69.2115 10.2173 65.7822 10.2173V7.59344C65.7822 7.10699 65.9727 6.86377 66.3574 6.86377H76.6635V6.87483Z" fill="#014369"/>
<path d="M96.4841 6.87478C96.7772 6.87478 96.9274 7.05167 96.9274 7.40913V9.71606C96.9274 10.0735 96.7809 10.2504 96.4841 10.2504H88.0905C87.5923 10.2504 87.1783 10.302 86.8522 10.4089C86.5261 10.5157 86.2623 10.6926 86.0645 10.9432C85.8666 11.1938 85.7274 11.5329 85.6505 11.964C85.5735 12.3915 85.5369 12.9222 85.5369 13.556V13.7992H96.3889C96.671 13.7992 96.8102 13.9761 96.8102 14.3336V16.2536C96.8102 16.611 96.671 16.7879 96.3889 16.7879H85.5369V17.2007C85.5369 17.8308 85.5735 18.3615 85.6505 18.7927C85.7274 19.2201 85.8666 19.5629 86.0645 19.8135C86.2623 20.064 86.5261 20.2409 86.8522 20.3478C87.1783 20.4547 87.5923 20.5063 88.0905 20.5063H96.4841C96.7772 20.5063 96.9274 20.6832 96.9274 21.0406V23.3475C96.9274 23.705 96.7809 23.8819 96.4841 23.8819H88.0319C87.0574 23.8819 86.233 23.7677 85.5552 23.5429C84.8774 23.3144 84.3242 22.9495 83.8956 22.4373C83.4669 21.9287 83.1518 21.2654 82.954 20.4473C82.7561 19.6292 82.6572 18.6379 82.6572 17.4734V13.2833C82.6572 12.1188 82.7561 11.1312 82.954 10.3204C83.1518 9.50968 83.4669 8.85004 83.8956 8.34148C84.3242 7.83293 84.8774 7.46072 85.5552 7.22487C86.233 6.98902 87.061 6.87109 88.0319 6.87109H96.4841V6.87478Z" fill="#014369"/>
<path d="M107.721 24.5379C108.039 24.5379 108.164 24.6816 108.087 24.9727L107.241 28.024C107.164 28.282 107.003 28.411 106.761 28.411H105.665C105.347 28.411 105.196 28.282 105.222 28.024L105.53 24.9211C105.555 24.6632 105.709 24.5342 105.991 24.5342H107.721V24.5379Z" fill="#014369"/>
<path d="M113.022 6.87478C113.304 6.87478 113.443 7.05167 113.443 7.40913V9.78976C113.443 10.162 113.304 10.3499 113.022 10.3499H104.475C103.976 10.3499 103.562 10.4015 103.236 10.5084C102.91 10.6152 102.65 10.7921 102.46 11.0427C102.269 11.2933 102.13 11.6287 102.046 12.0488C101.961 12.4689 101.921 13.0032 101.921 13.6518V17.1012C101.921 17.7498 101.961 18.2878 102.046 18.7153C102.13 19.1427 102.265 19.4855 102.46 19.7361C102.65 19.9867 102.91 20.1635 103.236 20.2704C103.562 20.3773 103.976 20.4289 104.475 20.4289H113.022C113.304 20.4289 113.443 20.6058 113.443 20.9632V23.3439C113.443 23.7013 113.304 23.8782 113.022 23.8782H104.361C103.386 23.8782 102.562 23.764 101.884 23.5392C101.207 23.3107 100.653 22.9459 100.225 22.4336C99.796 21.9251 99.4809 21.2617 99.2831 20.4436C99.0852 19.6255 98.9863 18.6342 98.9863 17.4697V13.2833C98.9863 12.1188 99.0852 11.1312 99.2831 10.3204C99.4809 9.50968 99.796 8.85004 100.225 8.34148C100.653 7.83293 101.207 7.46072 101.884 7.22487C102.562 6.98902 103.39 6.87109 104.361 6.87109H113.022V6.87478Z" fill="#014369"/>
<path d="M119.924 5.40432C119.804 5.40432 119.727 5.36747 119.694 5.29008C119.664 5.21269 119.646 5.08003 119.646 4.8884C119.646 4.40195 119.683 3.99658 119.752 3.67597C119.826 3.35536 119.935 3.0974 120.089 2.90945C120.243 2.71782 120.441 2.58516 120.686 2.50777C120.932 2.43038 121.221 2.39353 121.562 2.39353C122.115 2.39353 122.588 2.47829 122.98 2.65149C123.372 2.82469 123.746 3.0716 124.09 3.39221C124.262 3.55805 124.427 3.69071 124.581 3.7939C124.735 3.89708 124.958 3.94499 125.255 3.94499C125.409 3.94499 125.53 3.92656 125.622 3.88971C125.713 3.85286 125.783 3.79021 125.827 3.6944C125.874 3.59858 125.907 3.4696 125.926 3.31114C125.948 3.14899 125.955 2.94999 125.955 2.71414C125.966 2.45249 126.101 2.31982 126.369 2.31982H127.245C127.358 2.31982 127.431 2.35668 127.468 2.43406C127.505 2.51145 127.523 2.64412 127.523 2.83575C127.523 3.32219 127.486 3.72756 127.417 4.04817C127.343 4.36879 127.23 4.62675 127.072 4.81469C126.915 5.00632 126.713 5.13899 126.468 5.21638C126.222 5.29377 125.933 5.33062 125.592 5.33062C125.039 5.33062 124.57 5.24586 124.182 5.07266C123.793 4.89945 123.427 4.65254 123.079 4.33193C122.907 4.1661 122.738 4.03343 122.581 3.93025C122.423 3.83075 122.196 3.77916 121.899 3.77916C121.602 3.77916 121.412 3.86392 121.331 4.03712C121.251 4.21032 121.21 4.53462 121.21 5.01001C121.199 5.27166 121.057 5.40432 120.782 5.40432H119.924Z" fill="#014369"/>
<path d="M124.028 6.87476C124.515 6.87476 124.926 7.00005 125.259 7.25064C125.592 7.50124 125.918 7.99137 126.237 8.72103L132.594 23.318C132.656 23.4802 132.674 23.6129 132.641 23.7197C132.608 23.8266 132.517 23.8782 132.363 23.8782H129.923C129.707 23.8782 129.556 23.7713 129.48 23.5613L123.984 10.6005C123.907 10.4162 123.797 10.3241 123.662 10.3241H123.486C123.35 10.3241 123.24 10.4162 123.163 10.6005L117.767 23.5613C117.679 23.7713 117.528 23.8782 117.323 23.8782H114.825C114.66 23.8782 114.557 23.8266 114.528 23.7197C114.495 23.6129 114.513 23.4802 114.575 23.318L120.877 8.72103C121.196 7.99137 121.511 7.50124 121.819 7.25064C122.126 7.00005 122.485 6.87476 122.896 6.87476H124.028Z" fill="#014369"/>
<path d="M136.246 17.1933C136.246 17.8235 136.287 18.3541 136.371 18.7853C136.455 19.2128 136.591 19.5555 136.785 19.8061C136.975 20.0567 137.236 20.2336 137.562 20.3404C137.888 20.4473 138.302 20.4989 138.8 20.4989H144.504C145.003 20.4989 145.417 20.4473 145.743 20.3404C146.069 20.2336 146.329 20.0567 146.519 19.8061C146.71 19.5555 146.849 19.2165 146.933 18.7853C147.018 18.3578 147.058 17.8271 147.058 17.1933V13.5486C147.058 12.9185 147.018 12.3878 146.933 11.9566C146.849 11.5292 146.714 11.1864 146.519 10.9359C146.329 10.6853 146.069 10.5084 145.743 10.4015C145.417 10.2946 145.003 10.243 144.504 10.243H138.8C138.302 10.243 137.888 10.2946 137.562 10.4015C137.236 10.5084 136.975 10.6853 136.785 10.9359C136.594 11.1864 136.455 11.5255 136.371 11.9566C136.287 12.3841 136.246 12.9148 136.246 13.5486V17.1933ZM144.622 6.87478C145.596 6.87478 146.424 6.99271 147.109 7.22856C147.794 7.46441 148.351 7.83661 148.78 8.34517C149.209 8.85372 149.52 9.51337 149.711 10.3241C149.901 11.1349 150 12.1225 150 13.287V17.4623C150 18.6268 149.905 19.6181 149.711 20.4362C149.52 21.2544 149.209 21.9177 148.78 22.4262C148.351 22.9348 147.794 23.3033 147.109 23.5318C146.424 23.7603 145.596 23.8708 144.622 23.8708H138.686C137.712 23.8708 136.888 23.7566 136.21 23.5318C135.532 23.3033 134.979 22.9385 134.546 22.4262C134.118 21.9177 133.803 21.2544 133.605 20.4362C133.407 19.6181 133.308 18.6268 133.308 17.4623V13.2833C133.308 12.1188 133.407 11.1312 133.605 10.3204C133.803 9.50968 134.118 8.85004 134.546 8.34148C134.975 7.83293 135.528 7.46072 136.21 7.22487C136.888 6.98902 137.716 6.87109 138.686 6.87109H144.622V6.87478Z" fill="#014369"/>
<path d="M129.494 35.3538C130.824 35.3538 131.45 34.6831 131.45 33.8981C131.45 32.1035 128.578 32.7815 128.578 31.7423C128.578 31.3701 128.882 31.079 129.63 31.079C130.051 31.079 130.527 31.2043 130.963 31.4622L131.245 30.7584C130.824 30.4783 130.216 30.3235 129.633 30.3235C128.303 30.3235 127.68 30.9942 127.68 31.7828C127.68 33.596 130.56 32.9068 130.56 33.9608C130.56 34.3256 130.241 34.5983 129.487 34.5983C128.893 34.5983 128.278 34.3735 127.889 34.0603L127.578 34.7642C127.985 35.1142 128.739 35.3538 129.494 35.3538ZM121.35 34.5578C120.375 34.5578 119.646 33.8392 119.646 32.8405C119.646 31.8418 120.371 31.1232 121.35 31.1232C122.328 31.1232 123.053 31.8418 123.053 32.8405C123.053 33.8392 122.328 34.5578 121.35 34.5578ZM121.35 35.3538C122.852 35.3538 123.958 34.2925 123.958 32.8405C123.958 31.3885 122.852 30.3272 121.35 30.3272C119.847 30.3272 118.741 31.3959 118.741 32.8405C118.741 34.2851 119.847 35.3538 121.35 35.3538ZM113.161 35.3538C114.491 35.3538 115.118 34.6831 115.118 33.8981C115.118 32.1035 112.245 32.7815 112.245 31.7423C112.245 31.3701 112.549 31.079 113.297 31.079C113.718 31.079 114.198 31.2043 114.634 31.4622L114.916 30.7584C114.495 30.4783 113.887 30.3235 113.304 30.3235C111.974 30.3235 111.351 30.9942 111.351 31.7828C111.351 33.596 114.231 32.9068 114.231 33.9608C114.231 34.3256 113.912 34.5983 113.157 34.5983C112.564 34.5983 111.948 34.3735 111.56 34.0603L111.249 34.7642C111.652 35.1142 112.406 35.3538 113.161 35.3538ZM106.673 32.1329C106.673 32.7484 106.266 33.1095 105.475 33.1095H104.423V31.16H105.475C106.262 31.1637 106.673 31.5175 106.673 32.1329ZM107.662 35.2838L106.548 33.677C107.204 33.4191 107.578 32.8737 107.578 32.1329C107.578 31.0495 106.79 30.3935 105.515 30.3935H103.522V35.2838H104.423V33.8576H105.515C105.577 33.8576 105.64 33.8576 105.702 33.8502L106.691 35.2838H107.662ZM97.0701 35.3538C98.3927 35.3538 99.1877 34.5799 99.1877 33.1537V30.3935H98.3011V33.1169C98.3011 34.1229 97.8578 34.5541 97.0774 34.5541C96.297 34.5541 95.8464 34.1192 95.8464 33.1169V30.3935H94.9451V33.1537C94.9451 34.5762 95.7438 35.3538 97.0701 35.3538ZM89.1564 35.3538C89.9515 35.3538 90.6292 35.0663 91.0799 34.5357L90.4973 33.9755C90.1456 34.3662 89.7096 34.5541 89.2041 34.5541C88.2002 34.5541 87.4748 33.8429 87.4748 32.8368C87.4748 31.8307 88.2002 31.1195 89.2041 31.1195C89.7096 31.1195 90.1456 31.3075 90.4973 31.6907L91.0799 31.1379C90.6292 30.6073 89.9515 30.3198 89.1638 30.3198C87.6763 30.3198 86.5698 31.3738 86.5698 32.8331C86.5698 34.2998 87.6763 35.3538 89.1564 35.3538ZM81.6458 30.3935V33.7028L78.9749 30.3935H78.2349V35.2838H79.1288V31.9745L81.7997 35.2838H82.5397V30.3935H81.6458ZM71.5926 34.5578C70.618 34.5578 69.8889 33.8392 69.8889 32.8405C69.8889 31.8418 70.6143 31.1232 71.5926 31.1232C72.5671 31.1232 73.2962 31.8418 73.2962 32.8405C73.2962 33.8392 72.5708 34.5578 71.5926 34.5578ZM71.5926 35.3538C73.0947 35.3538 74.2011 34.2925 74.2011 32.8405C74.2011 31.3885 73.0947 30.3272 71.5926 30.3272C70.0904 30.3272 68.984 31.3959 68.984 32.8405C68.984 34.2851 70.0904 35.3538 71.5926 35.3538ZM63.569 35.3538C64.364 35.3538 65.0418 35.0663 65.4925 34.5357L64.9099 33.9755C64.5582 34.3662 64.1222 34.5541 63.6166 34.5541C62.6128 34.5541 61.8874 33.8429 61.8874 32.8368C61.8874 31.8307 62.6128 31.1195 63.6166 31.1195C64.1222 31.1195 64.5582 31.3075 64.9099 31.6907L65.4925 31.1379C65.0418 30.6073 64.364 30.3198 63.5763 30.3198C62.0889 30.3198 60.9824 31.3738 60.9824 32.8331C60.9824 34.2998 62.0889 35.3538 63.569 35.3538Z" fill="#014369"/>
</svg>
