<svg width="125" height="32" viewBox="0 0 125 32" fill="none" xmlns="http://www.w3.org/2000/svg">
<path fill-rule="evenodd" clip-rule="evenodd" d="M2.79053 18.4766C7.85563 16.5665 15.5494 11.2322 18.7124 0.050737C18.3461 -0.0383215 9.2051 0.0169562 8.57005 0.0169562C7.00686 0.0169562 5.39177 0.0108142 3.48969 1.25456C3.3523 1.34669 3.21491 1.43882 3.08668 1.53709C3.87438 1.6108 4.59186 1.7582 4.94297 2.00695C5.53222 2.42461 5.82226 2.79313 5.91996 3.21999C6.02987 3.696 6.8481 3.54245 7.52894 3.73899C13.3878 5.43725 11.4308 11.8679 11.0766 10.8575C10.2554 8.52051 6.88779 10.5044 5.88638 10.7378C3.83164 11.2168 1.10217 12.8506 0.0091593 13.2621L0 19.0018C1.26398 18.9987 1.5754 18.9342 2.79053 18.4766ZM21.6251 0.0292401L20.123 0.0230982C20.1444 8.62493 15.0579 23.2367 3.96598 26.105C2.65925 26.4428 1.75553 26.4735 0.43354 26.5196C1.04111 28.1625 2.23182 29.6335 3.72478 30.5518C5.76731 31.8078 7.85257 31.5898 9.80045 30.3184C18.0682 24.4221 22.3304 15.2798 22.2479 5.20078C22.2785 4.56509 21.9609 0.606585 21.6251 0.0292401Z" fill="black"/>
<path fill-rule="evenodd" clip-rule="evenodd" d="M23.2156 0.0476699C23.2492 0.287207 23.8415 1.62309 23.9789 1.99467C25.6275 6.36469 26.116 11.2476 25.4535 15.8202C24.675 21.2037 22.4432 26.538 17.604 31.6082C17.9398 31.7065 22.4126 31.6512 23.1484 31.6512C24.8337 31.6512 26.7664 31.4915 28.7325 29.8086C30.601 28.2117 31.4071 25.9606 31.4132 24.2347V13.0625C31.4162 11.1861 31.3643 9.31897 31.4132 7.45181C31.4864 4.54052 29.2333 1.31292 25.9939 0.348626C25.2062 0.112161 23.8079 -0.0874535 23.2156 0.0476699Z" fill="black"/>
<path fill-rule="evenodd" clip-rule="evenodd" d="M1.30029 5.63076C1.75215 5.04113 4.63122 3.5517 5.1014 4.79852C5.2968 5.31752 5.51052 5.33287 4.57932 5.83344C4.14883 6.06377 3.09857 6.91136 3.07109 6.06684C3.04361 5.15783 2.40246 5.47414 1.78268 5.468C1.71246 5.468 1.33693 5.5847 1.30029 5.63076Z" fill="#000"/>
<path d="M37.8099 16.8185C37.8099 16.9935 37.8801 17.0826 38.0175 17.0826H43.2689C43.739 17.0826 44.1329 17.0273 44.4535 16.9198C44.774 16.8123 45.0335 16.6373 45.2289 16.3947C45.4274 16.1521 45.5678 15.8265 45.6533 15.4242C45.7388 15.0189 45.7816 14.5214 45.7816 13.9256V11.6991C45.7816 11.1064 45.7388 10.6059 45.6533 10.2005C45.5678 9.79513 45.4274 9.47268 45.2289 9.23007C45.0305 8.98746 44.774 8.81241 44.4535 8.70493C44.1329 8.59745 43.739 8.54217 43.2689 8.54217H38.0175C37.8801 8.54217 37.8099 8.63737 37.8099 8.8247V16.8185ZM43.333 5.72915C44.197 5.72915 44.9389 5.8397 45.5587 6.06388C46.1785 6.28499 46.6853 6.63202 47.0791 7.09573C47.473 7.56252 47.7661 8.15522 47.9523 8.8769C48.1385 9.59859 48.2332 10.4523 48.2332 11.4381V14.1897C48.2332 15.1755 48.1385 16.0292 47.9523 16.7509C47.7661 17.4726 47.476 18.0653 47.0791 18.5321C46.6853 18.9989 46.1785 19.3428 45.5587 19.5639C44.9389 19.785 44.197 19.8987 43.333 19.8987H35.8407C35.5201 19.8987 35.3613 19.696 35.3613 19.2906V6.33413C35.3613 5.92876 35.5201 5.72607 35.8407 5.72607H43.333V5.72915Z" fill="black"/>
<path d="M52.327 5.729C52.5621 5.729 52.6781 5.87641 52.6781 6.1743V19.4502C52.6781 19.7481 52.5621 19.8955 52.327 19.8955H50.5989C50.3547 19.8955 50.2295 19.7481 50.2295 19.4502V6.1743C50.2295 5.87641 50.3516 5.729 50.5989 5.729H52.327Z" fill="black"/>
<path fill-rule="evenodd" clip-rule="evenodd" d="M63.8856 5.72894C65.1129 5.72894 65.9922 6.07903 66.5265 6.78229C67.0608 7.48247 67.3264 8.52354 67.3264 9.89934V11.054C67.3264 12.2149 67.1402 13.1331 66.7677 13.8056C66.3952 14.4812 65.7846 14.9112 64.942 15.1016L67.6806 19.3918C67.7325 19.4593 67.7508 19.5607 67.7294 19.6958C67.7081 19.8309 67.6226 19.8985 67.473 19.8985H65.4091C65.2717 19.8985 65.174 19.877 65.1221 19.837C65.0702 19.7971 65.0152 19.7296 64.9633 19.6344L62.4354 15.424H57.2665V19.4501C57.2665 19.748 57.1504 19.8954 56.9153 19.8954H55.1873C54.943 19.8954 54.8179 19.748 54.8179 19.4501V12.8966L63.3971 12.9519C63.9405 12.9519 64.3252 12.8045 64.5481 12.5066C64.771 12.2087 64.8839 11.7573 64.8839 11.1492V10.2986C64.8839 9.69051 64.771 9.23908 64.5481 8.94119C64.3252 8.6433 63.9405 8.4959 63.3971 8.4959C60.5363 8.4959 57.6756 8.51432 54.8179 8.51432V6.32778C54.8179 5.92241 54.9766 5.71973 55.2972 5.71973H63.8856V5.72894Z" fill="black"/>
<path d="M80.4028 5.72915C80.647 5.72915 80.7722 5.87655 80.7722 6.17444V8.09688C80.7722 8.39476 80.6501 8.54217 80.4028 8.54217H73.4081C72.9929 8.54217 72.6479 8.58516 72.3762 8.67422C72.1044 8.76328 71.8846 8.91069 71.7198 9.11951C71.5549 9.32834 71.4389 9.61087 71.3748 9.97018C71.3106 10.3264 71.2801 10.7686 71.2801 11.2968V11.4995H80.3234C80.5585 11.4995 80.6745 11.6469 80.6745 11.9448V13.5448C80.6745 13.8427 80.5585 13.9901 80.3234 13.9901H71.2801V14.334C71.2801 14.8592 71.3106 15.3014 71.3748 15.6607C71.4389 16.0169 71.5549 16.3025 71.7198 16.5114C71.8846 16.7202 72.1044 16.8676 72.3762 16.9567C72.6479 17.0457 72.9929 17.0887 73.4081 17.0887H80.4028C80.647 17.0887 80.7722 17.2361 80.7722 17.534V19.4564C80.7722 19.7543 80.6501 19.9017 80.4028 19.9017H73.3593C72.5471 19.9017 71.8602 19.8065 71.2954 19.6192C70.7306 19.4288 70.2695 19.1248 69.9123 18.6979C69.5551 18.2741 69.2925 17.7213 69.1277 17.0396C68.9628 16.3578 68.8804 15.5317 68.8804 14.5613V11.0696C68.8804 10.0992 68.9628 9.27613 69.1277 8.60052C69.2925 7.9249 69.5551 7.37519 69.9123 6.9514C70.2695 6.5276 70.7306 6.21743 71.2954 6.02089C71.8602 5.82435 72.5502 5.72607 73.3593 5.72607H80.4028V5.72915Z" fill="black"/>
<path d="M89.7667 20.4484C90.0323 20.4484 90.1361 20.5682 90.072 20.8108L89.3667 23.3535C89.3026 23.5685 89.1683 23.676 88.9668 23.676H88.0539C87.7883 23.676 87.6631 23.5685 87.6845 23.3535L87.9409 20.7678C87.9623 20.5528 88.0905 20.4453 88.3256 20.4453H89.7667V20.4484Z" fill="black"/>
<path d="M94.1852 5.72915C94.4203 5.72915 94.5363 5.87655 94.5363 6.17444V8.15829C94.5363 8.46846 94.4203 8.62508 94.1852 8.62508H87.0623C86.6471 8.62508 86.3021 8.66808 86.0304 8.75714C85.7586 8.8462 85.5419 8.9936 85.3831 9.20243C85.2243 9.41126 85.1083 9.69072 85.0381 10.0408C84.9679 10.3909 84.9343 10.8362 84.9343 11.3767V14.2511C84.9343 14.7916 84.9679 15.24 85.0381 15.5962C85.1083 15.9525 85.2213 16.2381 85.3831 16.4469C85.5419 16.6557 85.7586 16.8031 86.0304 16.8922C86.3021 16.9812 86.6471 17.0242 87.0623 17.0242H94.1852C94.4203 17.0242 94.5363 17.1716 94.5363 17.4695V19.4534C94.5363 19.7513 94.4203 19.8987 94.1852 19.8987H86.9677C86.1555 19.8987 85.4686 19.8035 84.9038 19.6161C84.3389 19.4257 83.8779 19.1217 83.5207 18.6948C83.1635 18.271 82.9009 17.7183 82.7361 17.0365C82.5712 16.3548 82.4888 15.5287 82.4888 14.5582V11.0696C82.4888 10.0992 82.5712 9.27613 82.7361 8.60052C82.9009 7.9249 83.1635 7.37519 83.5207 6.9514C83.8779 6.5276 84.3389 6.21743 84.9038 6.02089C85.4686 5.82435 86.1586 5.72607 86.9677 5.72607H94.1852V5.72915Z" fill="black"/>
<path d="M99.9376 4.50352C99.8368 4.50352 99.7727 4.47281 99.7453 4.40832C99.7208 4.34383 99.7056 4.23327 99.7056 4.07358C99.7056 3.66821 99.7361 3.3304 99.7941 3.06323C99.8552 2.79605 99.9468 2.58108 100.075 2.42446C100.203 2.26477 100.368 2.15422 100.573 2.08973C100.777 2.02523 101.018 1.99453 101.302 1.99453C101.763 1.99453 102.157 2.06516 102.484 2.20949C102.811 2.35383 103.122 2.55959 103.409 2.82676C103.552 2.96496 103.69 3.07551 103.818 3.1615C103.946 3.24749 104.133 3.28741 104.38 3.28741C104.508 3.28741 104.609 3.27205 104.685 3.24135C104.762 3.21064 104.82 3.15843 104.856 3.07858C104.896 2.99874 104.923 2.89125 104.939 2.7592C104.957 2.62408 104.963 2.45824 104.963 2.2617C104.972 2.04366 105.085 1.93311 105.308 1.93311H106.038C106.132 1.93311 106.193 1.96382 106.224 2.02831C106.254 2.0928 106.27 2.20335 106.27 2.36304C106.27 2.76841 106.239 3.10622 106.181 3.3734C106.12 3.64057 106.025 3.85554 105.894 4.01216C105.763 4.17185 105.595 4.28241 105.39 4.3469C105.186 4.41139 104.945 4.4421 104.661 4.4421C104.2 4.4421 103.809 4.37147 103.485 4.22713C103.162 4.08279 102.856 3.87704 102.566 3.60986C102.423 3.47167 102.282 3.36111 102.151 3.27513C102.02 3.19221 101.831 3.14922 101.583 3.14922C101.336 3.14922 101.177 3.21985 101.11 3.36418C101.043 3.50852 101.009 3.77877 101.009 4.17492C101 4.39296 100.881 4.50352 100.652 4.50352H99.9376Z" fill="black"/>
<path d="M103.356 5.729C103.762 5.729 104.104 5.83342 104.382 6.04224C104.66 6.25107 104.932 6.65951 105.197 7.26757L110.495 19.4317C110.546 19.5669 110.562 19.6774 110.534 19.7665C110.507 19.8555 110.43 19.8985 110.302 19.8985H108.269C108.089 19.8985 107.964 19.8095 107.899 19.6344L103.32 8.83377C103.256 8.68022 103.164 8.60345 103.051 8.60345H102.905C102.792 8.60345 102.7 8.68022 102.636 8.83377L98.1387 19.6344C98.0654 19.8095 97.9402 19.8985 97.7692 19.8985H95.687C95.5496 19.8985 95.4642 19.8555 95.4397 19.7665C95.4122 19.6774 95.4275 19.5669 95.4794 19.4317L100.731 7.26757C100.996 6.65951 101.259 6.25107 101.515 6.04224C101.772 5.83342 102.071 5.729 102.413 5.729H103.356Z" fill="black"/>
<path d="M113.539 14.3279C113.539 14.853 113.573 15.2953 113.643 15.6546C113.713 16.0108 113.826 16.2964 113.988 16.5052C114.146 16.7141 114.363 16.8615 114.635 16.9505C114.907 17.0396 115.252 17.0826 115.667 17.0826H120.421C120.836 17.0826 121.181 17.0396 121.453 16.9505C121.724 16.8615 121.941 16.7141 122.1 16.5052C122.259 16.2964 122.375 16.0139 122.445 15.6546C122.515 15.2983 122.549 14.8561 122.549 14.3279V11.2907C122.549 10.7656 122.515 10.3233 122.445 9.96403C122.375 9.6078 122.262 9.3222 122.1 9.11337C121.941 8.90454 121.724 8.75714 121.453 8.66808C121.181 8.57902 120.836 8.53603 120.421 8.53603H115.667C115.252 8.53603 114.907 8.57902 114.635 8.66808C114.363 8.75714 114.146 8.90454 113.988 9.11337C113.829 9.3222 113.713 9.60473 113.643 9.96403C113.573 10.3203 113.539 10.7625 113.539 11.2907V14.3279ZM120.518 5.72915C121.33 5.72915 122.02 5.82742 122.591 6.02396C123.162 6.2205 123.626 6.53067 123.984 6.95447C124.341 7.37826 124.6 7.92797 124.759 8.60359C124.918 9.2792 125 10.1022 125 11.0727V14.5521C125 15.5225 124.921 16.3486 124.759 17.0304C124.6 17.7121 124.341 18.2649 123.984 18.6887C123.626 19.1125 123.162 19.4196 122.591 19.61C122.02 19.8004 121.33 19.8925 120.518 19.8925H115.572C114.76 19.8925 114.073 19.7973 113.508 19.61C112.944 19.4196 112.483 19.1156 112.122 18.6887C111.765 18.2649 111.503 17.7121 111.338 17.0304C111.173 16.3486 111.09 15.5225 111.09 14.5521V11.0696C111.09 10.0992 111.173 9.27613 111.338 8.60052C111.503 7.9249 111.765 7.37519 112.122 6.9514C112.479 6.5276 112.941 6.21743 113.508 6.02089C114.073 5.82435 114.763 5.72607 115.572 5.72607H120.518V5.72915Z" fill="black"/>
<path d="M107.912 29.4616C109.02 29.4616 109.542 28.9026 109.542 28.2485C109.542 26.753 107.149 27.318 107.149 26.452C107.149 26.1418 107.402 25.8992 108.025 25.8992C108.376 25.8992 108.773 26.0036 109.136 26.2186L109.371 25.632C109.02 25.3987 108.513 25.2697 108.028 25.2697C106.92 25.2697 106.401 25.8286 106.401 26.4858C106.401 27.9967 108.8 27.4224 108.8 28.3007C108.8 28.6048 108.535 28.832 107.906 28.832C107.411 28.832 106.898 28.6447 106.575 28.3837L106.315 28.9702C106.654 29.262 107.283 29.4616 107.912 29.4616ZM101.125 28.7982C100.313 28.7982 99.7051 28.1994 99.7051 27.3672C99.7051 26.5349 100.31 25.9361 101.125 25.9361C101.94 25.9361 102.544 26.5349 102.544 27.3672C102.544 28.1994 101.94 28.7982 101.125 28.7982ZM101.125 29.4616C102.377 29.4616 103.299 28.5771 103.299 27.3672C103.299 26.1572 102.377 25.2727 101.125 25.2727C99.873 25.2727 98.951 26.1633 98.951 27.3672C98.951 28.571 99.873 29.4616 101.125 29.4616ZM94.3011 29.4616C95.4094 29.4616 95.9314 28.9026 95.9314 28.2485C95.9314 26.753 93.5378 27.318 93.5378 26.452C93.5378 26.1418 93.7912 25.8992 94.4141 25.8992C94.7652 25.8992 95.1651 26.0036 95.5284 26.2186L95.7635 25.632C95.4124 25.3987 94.9056 25.2697 94.4202 25.2697C93.3119 25.2697 92.7929 25.8286 92.7929 26.4858C92.7929 27.9967 95.1926 27.4224 95.1926 28.3007C95.1926 28.6048 94.927 28.832 94.298 28.832C93.8034 28.832 93.2905 28.6447 92.9669 28.3837L92.7074 28.9702C93.0432 29.262 93.6722 29.4616 94.3011 29.4616ZM88.8941 26.7775C88.8941 27.2904 88.5552 27.5913 87.8957 27.5913H87.0194V25.9668H87.8957C88.5521 25.9699 88.8941 26.2647 88.8941 26.7775ZM89.7184 29.4032L88.7902 28.0643C89.3368 27.8493 89.6482 27.3948 89.6482 26.7775C89.6482 25.8747 88.9918 25.328 87.9293 25.328H86.2684V29.4032H87.0194V28.2147H87.9293C87.9812 28.2147 88.0331 28.2147 88.085 28.2086L88.9093 29.4032H89.7184ZM80.8919 29.4616C81.9941 29.4616 82.6566 28.8167 82.6566 27.6282V25.328H81.9177V27.5975C81.9177 28.4359 81.5483 28.7952 80.898 28.7952C80.2477 28.7952 79.8721 28.4328 79.8721 27.5975V25.328H79.1211V27.6282C79.1211 28.8136 79.7867 29.4616 80.8919 29.4616ZM74.2972 29.4616C74.9597 29.4616 75.5245 29.222 75.9001 28.7798L75.4146 28.313C75.1215 28.6385 74.7582 28.7952 74.3369 28.7952C73.5003 28.7952 72.8958 28.2025 72.8958 27.3641C72.8958 26.5257 73.5003 25.933 74.3369 25.933C74.7582 25.933 75.1215 26.0896 75.4146 26.409L75.9001 25.9484C75.5245 25.5061 74.9597 25.2666 74.3033 25.2666C73.0637 25.2666 72.1417 26.1449 72.1417 27.361C72.1417 28.5833 73.0637 29.4616 74.2972 29.4616ZM68.0383 25.328V28.0858L65.8126 25.328H65.1959V29.4032H65.9408V26.6455L68.1666 29.4032H68.7833V25.328H68.0383ZM59.6606 28.7982C58.8485 28.7982 58.2409 28.1994 58.2409 27.3672C58.2409 26.5349 58.8454 25.9361 59.6606 25.9361C60.4728 25.9361 61.0803 26.5349 61.0803 27.3672C61.0803 28.1994 60.4758 28.7982 59.6606 28.7982ZM59.6606 29.4616C60.9124 29.4616 61.8344 28.5771 61.8344 27.3672C61.8344 26.1572 60.9124 25.2727 59.6606 25.2727C58.4089 25.2727 57.4868 26.1633 57.4868 27.3672C57.4868 28.571 58.4089 29.4616 59.6606 29.4616ZM52.9743 29.4616C53.6369 29.4616 54.2017 29.222 54.5772 28.7798L54.0918 28.313C53.7987 28.6385 53.4354 28.7952 53.014 28.7952C52.1775 28.7952 51.573 28.2025 51.573 27.3641C51.573 26.5257 52.1775 25.933 53.014 25.933C53.4354 25.933 53.7987 26.0896 54.0918 26.409L54.5772 25.9484C54.2017 25.5061 53.6369 25.2666 52.9804 25.2666C51.7409 25.2666 50.8188 26.1449 50.8188 27.361C50.8188 28.5833 51.7409 29.4616 52.9743 29.4616Z" fill="black"/>
</svg>
