<svg xmlns="http://www.w3.org/2000/svg" xmlns:xlink="http://www.w3.org/1999/xlink" width="100" zoomAndPan="magnify" viewBox="0 0 75 74.999997" height="100" preserveAspectRatio="xMidYMid meet" version="1.0"><defs><clipPath id="dff1b98193"><path d="M 30 11.542969 L 46 11.542969 L 46 21 L 30 21 Z M 30 11.542969 " clip-rule="nonzero"/></clipPath><clipPath id="f85f6a7f3e"><path d="M 46 11.542969 L 61 11.542969 L 61 21 L 46 21 Z M 46 11.542969 " clip-rule="nonzero"/></clipPath><clipPath id="e84cd4ee44"><path d="M 61 11.542969 L 71 11.542969 L 71 21 L 61 21 Z M 61 11.542969 " clip-rule="nonzero"/></clipPath><clipPath id="fea5e92388"><path d="M 3.75 11.542969 L 31 11.542969 L 31 21 L 3.75 21 Z M 3.75 11.542969 " clip-rule="nonzero"/></clipPath><clipPath id="666c681453"><path d="M 3.75 26 L 71.25 26 L 71.25 63 L 3.75 63 Z M 3.75 26 " clip-rule="nonzero"/></clipPath></defs><rect x="-7.5" width="90" fill="#ffffff" y="-7.5" height="89.999996" fill-opacity="1"/><rect x="-7.5" width="90" fill="#ffffff" y="-7.5" height="89.999996" fill-opacity="1"/><g clip-path="url(#dff1b98193)"><path fill="#000000" d="M 45.761719 11.730469 L 35.539062 11.730469 L 30.917969 20.507812 L 40.582031 20.507812 Z M 45.761719 11.730469 " fill-opacity="1" fill-rule="nonzero"/></g><g clip-path="url(#f85f6a7f3e)"><path fill="#000000" d="M 60.886719 11.730469 L 50.804688 11.730469 L 46.183594 20.507812 L 55.707031 20.507812 Z M 60.886719 11.730469 " fill-opacity="1" fill-rule="nonzero"/></g><g clip-path="url(#e84cd4ee44)"><path fill="#000000" d="M 70.828125 11.730469 L 65.507812 11.730469 L 61.445312 20.507812 L 70.828125 20.507812 Z M 70.828125 11.730469 " fill-opacity="1" fill-rule="nonzero"/></g><g clip-path="url(#fea5e92388)"><path fill="#000000" d="M 30.359375 11.871094 L 3.75 11.871094 L 3.75 20.507812 L 25.597656 20.507812 Z M 30.359375 11.871094 " fill-opacity="1" fill-rule="nonzero"/></g><g clip-path="url(#666c681453)"><path fill="#000000" d="M 3.890625 58.390625 C 3.890625 60.898438 6.128906 62.988281 8.929688 62.988281 L 66.207031 62.988281 C 69.007812 62.988281 71.25 60.898438 71.25 58.390625 L 71.25 26.355469 L 4.03125 26.355469 C 3.890625 26.214844 3.890625 58.390625 3.890625 58.390625 Z M 28.957031 40.144531 C 28.957031 37.636719 30.917969 36.382812 33.4375 37.636719 L 44.082031 42.511719 C 46.601562 43.628906 46.601562 45.578125 44.082031 46.691406 L 33.4375 51.566406 C 30.917969 52.679688 28.957031 51.566406 28.957031 49.058594 Z M 28.957031 40.144531 " fill-opacity="1" fill-rule="nonzero"/></g></svg>